<svg width="1052" height="697" viewBox="0 0 1052 697" fill="none" xmlns="http://www.w3.org/2000/svg">
<g clip-path="url(#clip0_4902_59)">
<path d="M225.085 167.018C248.024 168.122 236.544 212.045 234.575 225.326C231.744 244.427 227.083 259.857 219.327 277.35C216.087 284.655 206.556 323.214 211.744 328.829C219.355 329.663 231.764 311.026 236.971 305.581C251.975 289.889 266.131 272.923 282.625 258.754C288.32 253.289 302.288 244.614 306.942 239.011C326.819 215.08 347.936 196.337 366.314 235.32C369.638 242.371 373.834 249.94 375.882 258.422C377.198 263.781 377.582 269.326 377.015 274.814C376.267 282.138 368.122 301.189 374.684 306.028C380.609 306.278 390.98 293.546 395.507 289.03C408.932 275.637 421.295 260.303 435.495 247.752C447.332 237.292 462.187 229.612 474.296 219.409C481.031 213.703 485.54 206.543 493.193 201.361C502.43 195.212 513.755 193.046 524.606 195.353C541.849 199.052 546.735 214.931 543.955 230.523C541.206 245.939 532.395 259.143 527.392 273.83C521.606 290.803 516.738 308.016 511.198 325.056C506.171 342.703 497.198 359.568 491.38 376.744C484.36 397.464 480.017 416.262 469.242 435.69C465.029 443.283 461.459 458.101 459.178 467.089C457.07 475.398 453.11 490.596 457.066 498.617C458.141 500.405 459.751 500.79 461.587 501.078C469.566 499.278 521.116 452.822 528.335 442.272C534.005 431.184 536.62 416.862 541.622 405.65C550.421 386.577 557.824 366.683 566.623 347.671C570.529 340.089 576.114 332.53 579.8 324.917C596.295 290.83 623.365 264.212 649.474 237.436C653.999 232.966 665.161 217.141 670.904 215.359C683.548 211.44 707.073 204.13 719.723 201.733C757.013 194.671 779.46 223.558 803.493 245.788C814.606 256.552 815.91 272.434 818.188 286.59C822.695 314.576 826.301 312.057 843.727 294.93C859.115 279.679 874.685 264.616 890.434 249.743C904.07 236.645 916.604 222.126 933.167 212.579C945.394 205.018 959.312 203.904 972.097 198.41C987.558 191.771 1001.44 195.09 1000.4 214.755C1000.04 221.436 996.136 230.395 993.032 236.554C979.524 263.31 975.979 293.419 966.611 321.58C963.629 332.135 955.302 343.789 952.35 354.015C943.594 384.373 932.481 413.525 921.38 442.903C917.081 454.267 901.59 505.689 926.664 500.846C931.213 499.964 958.277 478.404 964.296 475.08C971.595 470.353 989.646 456.184 996.791 461.389C1001.89 470.481 971.907 500.594 965.527 508.285L938.72 540.113C925.611 555.677 918.667 564.029 901.878 576.147C889.803 584.866 879.945 597.1 865.911 604.454C855.092 610.123 847.591 614.599 834.604 610.993C816.223 606.376 806.23 584.309 807.565 566.662C808.379 555.892 814.471 545.366 817.331 535.03C820.05 527.175 820.846 513.11 824.63 505.946C835.48 485.415 841.333 465.479 847.101 443.166C849.122 435.347 854.302 426.059 856.678 417.946C858.937 410.231 861.331 402.326 863.842 394.684C865.911 388.408 872.64 374.239 873.626 368.777C876.51 352.815 887.801 325.231 880.386 310.37C879.363 308.325 876.841 306.512 874.722 306.126C865.195 304.393 849.789 316.673 841.664 321.928C837.194 324.893 827.63 327.415 826.375 330.397C823.08 338.246 822.615 350.855 821.182 359.575C819.884 367.014 818.225 374.386 816.21 381.667C803.811 426.579 784.26 469.202 758.323 507.899C752.494 516.778 747.118 525.436 740.432 533.732C729.563 547.074 717.342 559.247 703.963 570.073C690.792 580.696 658.487 597.81 641.979 602.39C635.832 604.098 629.568 604.919 623.2 604.196C616.342 603.413 609.803 601.098 603.343 598.771C580.381 590.499 576.126 582.674 560.328 565.456C551.37 555.69 543.165 547.558 538.145 534.975C536.816 531.638 535.524 528.24 534.575 524.78C532.597 517.537 531.966 505.848 527.129 500.178C525.996 498.849 524.472 497.913 522.665 497.986C512.444 498.409 467.912 558.665 457.895 568.921C450.094 576.906 441.098 582.68 432.125 589.195C420.769 597.437 408.721 609.579 393.61 609.383C387.696 609.285 382.059 606.86 377.923 602.629C370.73 595.269 359.461 571.646 359.609 560.698C359.789 547.289 364.671 537.278 368.39 524.823C372.097 512.406 375.969 500.233 379.719 487.889C383.257 476.249 385.378 463.483 389.652 452.026C393.412 441.948 399.203 432.947 403.425 422.832C409.453 408.394 413.017 394.096 417.758 379.321C421.976 366.861 428.672 354.75 428.911 341.326C429.013 335.606 427.508 324.78 419.454 326.505C409.654 328.604 399.803 341.65 393.559 349.055C368.937 378.262 348.228 410.855 331.997 445.42C317.916 476.574 307.75 511.279 286.582 539.353C279.321 548.985 268.751 555.53 259.442 562.933C253.84 567.409 248.499 572.038 242.479 575.92C237.976 578.822 229.477 580.831 225.45 576.183C218.363 568.009 222.297 551.342 224.225 541.852C227.109 527.646 233.47 514.739 238.566 501.305C241.995 492.157 244.43 482.36 247.644 473.145C250.21 465.791 252.929 458.652 255.593 451.298C259.645 439.615 261.018 426.781 265.029 415.135C269.316 402.681 274.996 390.918 277.834 377.974C279.948 369.476 281.664 360.891 281.576 352.147C281.521 346.783 278.251 339.013 271.91 340.104C262.675 341.693 251.997 354.609 246.425 361.411C228.561 383.228 212.448 406.593 199.146 431.453C190.856 447.085 183.908 464.089 176.449 480.15C171.53 490.742 165.923 500.619 161.313 511.322C155.086 525.785 154.8 541.356 146.963 555.181C142.418 563.203 135.131 569.313 130.169 576.355C123.363 586.017 118.722 595.961 111.151 605.464C103.422 615.169 95.2682 622.957 86.8539 631.946C82.2684 637.365 77.2707 643.329 73.2056 649.14C66.2786 659.028 58.3946 666.682 49.6901 674.899C45.6348 677.961 39.0935 687.164 35.1791 689.423C16.9287 699.936 22.726 674.348 25.3797 666.909C30.6658 652.079 36.6467 641.663 43.1415 627.917C48.3007 616.987 50.9612 606.835 55.3061 595.74C59.4337 585.656 65.5004 575.939 69.7388 565.37C77.0699 547.087 80.6108 528.84 86.2147 510.165C88.8892 498.966 97.4449 486.597 100.252 475.802C106.892 450.269 114.114 426.316 123.709 401.732C127.946 390.876 129.101 376.566 132.374 365.147C135.05 355.815 139.495 347.175 140.113 337.603C140.373 331.118 137.832 324.329 133.564 320.473C115.182 303.868 87.4393 341.043 70.5917 344.438C69.2495 344.714 68.1113 343.483 67.1854 342.554C63.522 326.011 112.538 279.881 123.166 265.128C126.072 261.093 137.535 254.992 142.133 252.173C147.177 249.054 151.897 245.438 156.223 241.381C179.183 219.586 198.055 195.661 218.129 171.289C220.02 168.993 222.353 167.962 225.085 167.018ZM643.865 527.964C678.638 518.296 700.913 485.777 718.162 456.166C721.524 450.385 723.887 444.795 726.753 438.96C734.064 424.081 736.586 409.055 740.67 393.282C744.093 380.044 748.826 367.351 749.365 353.354C750.106 345.828 748.349 338.489 747.847 331.05C747.253 322.325 747.626 314.638 745.085 306.11C740.205 289.752 731.97 270.724 711.176 273.642C697.301 278.213 688.906 288.536 678.185 297.977C670.451 304.79 661.175 311.511 654.213 318.967C650.864 322.49 648.035 326.475 645.812 330.801C642.824 336.611 640.595 343.636 637.638 349.435C633.137 358.27 626.451 367.155 622.612 376.376C605.951 416.433 599.289 458.107 612.84 500.252C616.128 510.489 621.828 521.137 631.692 525.883C635.47 527.72 639.695 528.442 643.865 527.964Z" fill="black"/>
<path d="M1046.03 4.79971C1048.85 4.50335 1049.85 4.30925 1052.06 6.21352C1053.3 9.87265 1048.57 17.9483 1047.13 21.9265C1043.46 32.0173 1041.8 41.7541 1040.38 52.2876C1038.78 64.2073 1048.71 68.7549 1049.14 79.8242C1048.91 95.2542 1023.16 123.145 1012.46 134.379C1004.31 142.941 982.182 166.484 970.634 166.105C965.693 165.943 962.919 163.795 959.558 160.484C954.408 153.249 953.625 141.468 948.585 133.149C945.701 128.378 939.15 123.98 938.017 119.116C936.327 111.816 947.471 100.616 951.231 94.1442C953.404 90.9822 955.186 87.4762 956.76 83.9897C962.656 70.9305 962.754 58.2741 975.178 49.1869C981.778 44.3632 988.753 39.2125 995.298 34.1989C1003.39 28.0006 1010.72 20.0534 1019.53 14.7944C1027.32 10.1384 1037.26 6.96911 1046.03 4.79971Z" fill="black"/>
</g>
<defs>
<clipPath id="clip0_4902_59">
<rect width="1052" height="697" fill="white"/>
</clipPath>
</defs>
</svg>
